<?xml version="1.0" standalone="no"?>
<!DOCTYPE svg PUBLIC "-//W3C//DTD SVG 20010904//EN"
 "http://www.w3.org/TR/2001/REC-SVG-20010904/DTD/svg10.dtd">
<svg version="1.0" xmlns="http://www.w3.org/2000/svg"
 width="3000.000000pt" height="2000.000000pt" viewBox="0 0 3000.000000 2000.000000"
 preserveAspectRatio="xMidYMid meet">

<g transform="translate(0.000000,2000.000000) scale(0.100000,-0.100000)"
fill="#b1b4b5" stroke="none">
<path d="M15036 16077 l-210 -181 98 -26 98 -25 239 -258 c146 -159 242 -271
248 -290 5 -18 15 -50 20 -73 11 -40 12 -41 64 -48 28 -3 64 -6 79 -6 l27 0
-50 79 c-66 104 -84 177 -100 406 l-12 185 -150 87 -149 88 6 123 c4 67 5 122
4 121 -2 0 -97 -82 -212 -182z"/>
<path d="M14475 15952 c-54 -50 -72 -79 -160 -252 -97 -193 -101 -199 -400
-595 l-303 -400 -238 -167 -239 -167 -114 -248 c-63 -136 -143 -310 -177 -386
-43 -94 -140 -265 -309 -542 l-246 -404 -357 -286 -357 -286 -162 -217 c-89
-119 -163 -220 -163 -224 0 -4 114 -107 254 -229 l254 -222 -165 -188 -166
-189 -99 92 c-55 51 -104 102 -109 113 -4 11 -38 169 -75 350 -37 182 -71 334
-75 339 -7 7 -166 -82 -436 -245 l-81 -49 -44 20 c-24 11 -48 20 -55 20 -6 0
-43 -18 -82 -41 l-70 -40 -105 70 c-58 39 -108 71 -110 71 -3 0 68 -111 158
-247 l162 -248 108 -265 c60 -146 112 -276 118 -290 l9 -25 -28 25 c-36 32
-330 307 -406 379 l-58 56 24 -55 c31 -71 544 -1166 564 -1204 11 -22 12 -26
1 -20 -7 4 -202 170 -432 368 -231 197 -417 353 -414 345 3 -8 131 -226 284
-485 l279 -472 220 -197 c138 -124 223 -208 227 -224 4 -14 48 -327 98 -696
50 -368 92 -678 94 -688 3 -12 0 -17 -9 -13 -15 5 -886 718 -903 738 -6 8
-111 389 -232 848 l-222 835 -44 1075 c-24 591 -45 1085 -46 1098 -3 20 -115
-88 -670 -637 l-666 -661 -154 0 -153 0 -645 -720 -645 -720 -164 -101 -165
-101 -263 4 -263 4 -530 -626 -530 -625 -333 -524 -332 -525 -575 -377 -575
-378 -94 -200 -93 -199 -47 -18 c-92 -34 -576 -237 -584 -244 -4 -4 14 -10 40
-14 83 -12 551 -64 738 -82 l180 -17 301 64 302 65 272 -144 272 -143 401 115
c221 64 408 116 416 116 8 0 135 -70 284 -156 l269 -156 297 91 c163 50 304
91 312 91 8 0 170 -72 362 -160 l347 -161 901 236 c495 129 905 235 911 235 7
0 841 -403 1855 -896 1255 -611 1849 -895 1863 -891 12 3 660 261 1441 573
l1420 568 137 -134 c75 -74 180 -177 232 -227 l95 -93 360 172 c198 94 367
171 375 170 8 0 479 -102 1046 -226 567 -124 1038 -226 1048 -226 10 0 507
148 1104 329 l1087 329 860 201 c851 198 866 201 1445 296 l585 97 2025 758
c1114 416 2053 768 2088 780 34 12 62 26 62 30 0 4 -625 467 -1390 1029
l-1389 1021 -143 0 -143 1 -290 354 -290 354 -95 -5 -95 -6 -274 173 -273 172
-150 -6 -150 -6 -378 355 c-265 248 -377 359 -373 370 3 8 31 77 62 152 l57
137 -183 215 c-102 118 -194 220 -206 226 -12 6 -96 21 -187 34 -91 13 -169
27 -174 31 -5 4 -14 34 -20 66 l-12 58 -94 30 -94 30 -159 325 c-127 260 -180
383 -267 617 -102 272 -111 305 -142 474 l-33 182 -200 97 c-190 91 -203 99
-250 156 -82 97 -238 269 -242 267 -2 -1 -119 -129 -260 -285 -141 -156 -304
-335 -362 -398 l-104 -115 -253 -130 -253 -130 -255 -352 c-141 -194 -256
-358 -256 -365 0 -7 67 -137 149 -288 l149 -275 493 -380 492 -379 44 -96 44
-95 127 -70 127 -70 118 -240 118 -240 205 -108 205 -109 257 -280 c141 -154
259 -284 260 -289 2 -6 -38 13 -90 40 -296 157 -688 358 -688 352 0 -20 38
-123 86 -239 31 -73 55 -135 52 -137 -2 -2 -62 42 -134 98 l-130 103 -118 27
c-65 16 -120 26 -123 23 -3 -2 81 -167 187 -366 106 -199 190 -363 188 -365
-2 -2 -149 135 -326 304 l-323 308 -156 247 -155 247 -97 74 c-108 84 -109 84
-110 -17 -1 -32 -4 -58 -8 -58 -5 0 -220 233 -480 518 l-472 517 -153 38 -154
38 -173 132 -174 133 -163 279 -163 280 -178 192 -178 192 -85 -5 c-47 -3 -92
-8 -101 -10 -10 -3 -100 57 -231 154 -118 87 -220 162 -227 166 -7 5 38 -90
100 -209 61 -120 105 -214 97 -209 -8 5 -101 69 -207 142 -106 74 -195 132
-198 129 -2 -3 11 -55 30 -116 19 -61 30 -111 25 -111 -7 0 -604 315 -617 326
-2 2 4 62 14 134 l17 132 -48 114 c-52 122 -50 120 -108 98 -13 -5 -14 -2 -6
22 27 83 80 262 80 269 0 5 -22 -12 -49 -39 l-48 -48 -7 44 c-3 23 -8 77 -12
119 l-7 76 -74 24 c-41 12 -76 26 -78 29 -2 3 24 14 58 23 l62 18 -3 127 c-1
70 -5 172 -8 227 l-6 101 -246 170 c-136 94 -252 174 -258 177 -7 4 -18 -41
-31 -138 l-21 -144 -77 -101 c-43 -55 -79 -99 -82 -97 -2 2 9 107 23 232 l27
228 55 94 c61 105 64 90 -22 150 -38 27 -38 27 -55 7 -54 -66 -101 -118 -104
-114 -2 3 -72 104 -156 224 l-152 219 110 316 c60 174 113 324 117 334 6 18 4
17 -34 -2 -23 -12 -44 -21 -46 -21 -3 0 -3 79 1 175 3 96 4 175 2 175 -2 0
-31 -26 -64 -58z m-71 -1724 l6 -99 85 -102 c47 -56 85 -108 85 -117 0 -8 9
-87 19 -176 l20 -161 86 -143 87 -144 -31 -150 c-18 -82 -33 -152 -35 -154 -6
-5 -21 21 -95 157 -44 80 -85 139 -139 197 -42 46 -79 84 -83 84 -4 0 -22 -24
-40 -52 l-32 -53 15 -155 c9 -85 14 -157 13 -158 -2 -2 -65 50 -141 117 -75
66 -140 118 -143 116 -4 -2 -47 -92 -95 -199 -49 -108 -92 -196 -96 -196 -4 0
-10 36 -14 79 l-6 79 75 167 c76 166 76 168 81 269 l6 101 -126 180 c-100 142
-126 185 -122 205 3 14 13 84 22 155 18 143 4 108 197 474 l60 113 167 -167
167 -167 7 -100z m920 -1180 c-30 -77 -57 -144 -59 -148 -2 -3 16 -40 40 -81
25 -41 82 -167 127 -281 l83 -208 57 -23 c50 -20 72 -39 178 -156 274 -303
249 -270 266 -357 l15 -79 121 -125 c67 -69 227 -231 355 -360 128 -130 233
-239 233 -242 0 -4 -111 62 -247 146 -137 84 -340 201 -453 261 -113 59 -253
141 -311 181 l-107 72 -63 -14 c-35 -7 -73 -13 -84 -13 -11 0 -76 49 -149 114
-119 105 -135 116 -216 145 -93 34 -100 42 -100 115 0 12 -20 48 -44 81 l-45
59 48 90 c27 50 78 149 115 221 l66 132 0 190 0 190 111 116 c61 64 113 116
114 116 2 0 -21 -64 -51 -142z m5653 -964 c37 -8 69 -17 71 -19 2 -2 -81 -100
-184 -219 -103 -119 -189 -214 -191 -212 -2 1 21 71 51 153 44 120 67 167 113
232 31 44 61 81 65 81 4 0 37 -7 75 -16z m-8089 -612 c158 -120 752 -559 1320
-975 l1033 -757 509 -271 510 -271 188 1 c103 1 234 4 292 7 l105 5 990 -766
c545 -421 997 -774 1005 -783 13 -14 13 -15 0 -5 -8 6 -253 163 -545 350 -291
187 -543 348 -560 359 -16 10 -27 15 -23 9 34 -58 288 -506 298 -525 12 -24
12 -24 -6 -9 -10 9 -288 251 -616 537 -658 574 -588 523 -793 573 l-90 21
-247 -18 -247 -19 140 -365 c77 -200 138 -368 137 -372 -2 -5 -221 149 -487
342 l-484 351 -185 192 c-241 250 -1375 1398 -1378 1394 -1 -1 11 -92 26 -202
l29 -200 265 -694 c147 -382 265 -695 264 -697 -2 -1 -121 103 -266 232 -144
129 -264 234 -266 234 -2 0 77 -152 176 -337 193 -363 176 -338 355 -506 l62
-57 16 -346 c9 -190 14 -348 11 -351 -2 -3 -204 136 -448 307 -365 257 -443
316 -441 334 1 11 44 165 96 341 l93 320 -66 379 -66 379 -515 629 -514 629 0
90 c2 625 5 741 20 735 9 -3 145 -104 303 -224z m9406 -273 c-42 -90 -80 -168
-85 -173 -5 -6 -9 27 -9 83 l0 93 82 84 c45 46 83 82 85 81 1 -2 -31 -77 -73
-168z m108 -2134 c336 -525 311 -485 304 -485 -3 0 -94 79 -203 176 -109 96
-226 192 -261 212 -59 35 -66 43 -128 154 -36 64 -71 121 -77 126 -14 11 -197
45 -204 38 -3 -3 11 -52 30 -110 20 -58 33 -106 31 -106 -3 0 -36 13 -74 29
l-69 30 -96 -51 c-53 -27 -98 -49 -100 -47 -2 2 31 46 72 96 l75 93 -11 62
c-22 120 -42 100 189 188 157 60 208 76 216 67 7 -7 144 -219 306 -472z m1191
-810 l209 -121 174 -214 c96 -117 172 -215 170 -217 -12 -13 -766 422 -766
443 0 3 129 -43 213 -75 16 -6 31 -11 35 -11 4 0 -41 48 -98 108 -58 59 -141
145 -185 191 l-80 84 60 -34 c33 -18 154 -88 268 -154z"/>
<path d="M15680 14716 c0 -2 25 -68 55 -146 31 -78 55 -144 53 -145 -2 -2 -78
50 -170 116 -93 65 -168 116 -168 113 0 -3 47 -96 105 -207 l105 -202 173
-161 174 -161 92 -214 93 -214 304 -290 c168 -159 356 -339 419 -398 l115
-109 0 375 0 375 -287 247 -288 247 -171 227 -172 227 -216 162 c-119 89 -216
160 -216 158z"/>
</g>
</svg>
